# xmcd
#
# Track frame offsets:
#	150
#	18998
#	44502
#	60773
#	83564
#	105420
#	127033
#	147887
#	167198
#	187151
#
# Disc length: 2762 seconds
#
# Revision: 1
# Processed by: cddbd v1.5.2PL0 Copyright (c) Steve Scherf et al.
# Submitted via: EZCDAudioConverter 7.1.7.1
#
DISCID=7f0ac80a
DTITLE=群星 - 红河谷(器乐篇) Dts-Es5.1
DYEAR=2006
DGENRE=
TTITLE0=红河谷  加拿大电影《红河谷》 巴乌与琵琶
TTITLE1=丽达之歌  印度电影《流浪者》 二胡
TTITLE2=卖花姑娘  朝鲜电影《卖花姑娘》 古筝
TTITLE3=怀念战友  中国电影《冰山上的来客》 二胡
TTITLE4=教父  美国电影《教父》 埙与萧
TTITLE5=牧羊曲  中国电影《少林寺》 二胡 古筝 巴乌与琵琶
TTITLE6=红梅花儿开  苏联电影《红梅花儿开》 琵琶
TTITLE7=追捕  日本电影《追捕》 二胡
TTITLE8=当我们年轻时  美国电影《翠堤春晓》巴乌与琵琶
TTITLE9=人鬼情未了  美国电影《人鬼情未了》 二胡
EXTD=
EXTT0=
EXTT1=
EXTT2=
EXTT3=
EXTT4=
EXTT5=
EXTT6=
EXTT7=
EXTT8=
EXTT9=
PLAYORDER=
